<svg xmlns="http://www.w3.org/2000/svg" width="711" height="458" viewBox="0 0 711 458" version="1.1"><path d="M 310 5.037 C 141.976 5.540, 121.773 5.766, 115.500 7.218 C 58.213 20.479, 19.748 58.782, 5.251 117 C 2.860 126.601, 2.114 324.436, 4.414 339 C 13.681 397.691, 56.962 442.532, 117 455.644 C 131.945 458.908, 579.173 458.469, 593.881 455.176 C 652.540 442.042, 694.468 398.369, 704.573 339.878 C 707.245 324.408, 706.123 126.406, 703.298 115 C 683.930 36.790, 632.391 3.565, 531.500 4.247 C 512.800 4.374, 413.125 4.729, 310 5.037 M 309.500 12.940 C 121.500 13.500, 121.500 13.500, 111.779 16.185 C 59.036 30.753, 21.502 70.921, 12.546 122.381 C 10.239 135.633, 10.236 327.096, 12.542 340.278 C 21.821 393.324, 61.276 434.088, 116.500 447.684 C 126.465 450.137, 569.776 450.974, 585.854 448.570 C 641.458 440.256, 686.019 396.597, 696.715 339.954 C 699.521 325.094, 699.438 137.490, 696.619 122.500 C 686.397 68.141, 646.312 26.814, 592.244 14.890 C 580.107 12.213, 572.216 12.159, 309.500 12.940 M 173.999 93.250 C 164.675 99.615, 164.861 112.322, 174.382 119.438 C 176.943 121.352, 178.752 121.523, 199.571 121.819 C 211.907 121.994, 222 122.227, 222 122.336 C 222 122.445, 229.420 159.652, 238.489 205.017 C 262.967 327.467, 251.112 316.500, 359 316.500 C 464.833 316.500, 456.167 323.054, 474.046 229.489 C 481.328 191.382, 484.920 170.396, 484.524 168.279 C 482.007 154.848, 462.680 151.624, 455.897 163.503 C 454.890 165.268, 449.819 189.465, 443.565 222.354 C 432.564 280.203, 431.893 282.816, 427.528 284.805 C 423.843 286.484, 294.242 286.523, 290.561 284.846 C 285.974 282.756, 285.316 280.066, 267.584 190.914 C 249.428 99.632, 248.793 97.101, 243.102 93.281 C 237.822 89.736, 179.186 89.710, 173.999 93.250 M 347 125.500 C 347 153, 347 153, 315.468 153 C 283.937 153, 283.937 153, 284.218 164.750 C 284.500 176.500, 284.500 176.500, 315.750 176.764 C 347 177.028, 347 177.028, 347 204.014 C 347 231, 347 231, 358.500 231 C 370 231, 370 231, 370 204.014 C 370 177.028, 370 177.028, 401.250 176.764 C 432.500 176.500, 432.500 176.500, 432.782 164.750 C 433.063 153, 433.063 153, 401.532 153 C 370 153, 370 153, 370 125.500 C 370 98, 370 98, 358.500 98 C 347 98, 347 98, 347 125.500 M 277.500 339.704 C 265.732 343.722, 257.023 357.248, 258.292 369.538 C 261.257 398.272, 300.430 404.747, 312.642 378.521 C 322.980 356.322, 300.749 331.767, 277.500 339.704 M 422.500 339.339 C 390.677 349.880, 396.955 394.551, 430.312 394.924 C 456.399 395.215, 468.493 363.230, 448.967 345.589 C 441.773 339.090, 430.961 336.536, 422.500 339.339" stroke="none" fill="#121212" fill-rule="evenodd"/></svg>